<?xml version="1.0" encoding="utf-8"?>
<!-- Generator: Adobe Illustrator 15.1.0, SVG Export Plug-In . SVG Version: 6.00 Build 0)  -->
<!DOCTYPE svg PUBLIC "-//W3C//DTD SVG 1.1//EN" "http://www.w3.org/Graphics/SVG/1.1/DTD/svg11.dtd">
<svg version="1.1" id="Layer_1" xmlns="http://www.w3.org/2000/svg" xmlns:xlink="http://www.w3.org/1999/xlink" x="0px" y="0px"
	 width="115.0205078px" height="47.1235352px" viewBox="0 0 115.0205078 47.1235352"
	 enable-background="new 0 0 115.0205078 47.1235352" xml:space="preserve">
<g>
	<path fill="#EF4135" d="M115.0205078,8.1162109l-0.8808594-0.6181641l0.0029297-0.0029297l-2.6533203-1.8588867
		l-0.0087891-0.0073242l-0.8720703-0.6108398l-3.28125,3.0854492l0.1904297-1.6669922l-3.5390625-2.4804688l-0.3955078,3.456543
		l-3.3808594,3.5351562l-0.8798828-0.6176758l0.0019531-0.0024414L96.671875,8.4677734l-0.0097656-0.0058594l-0.8720703-0.6123047
		l-7.4990234,7.0512695l-0.3046875,2.6713867l-3.0517578,3.4482422l0.6162109-5.3964844l-4.5615234-3.1401367l-3.2158203,3.0043945
		l1.5292969-13.0083008L75.7626953,0l-2.046875,17.9267578l-0.0195312-0.0136719l-10.2910156,9.7124023l0.5527344-4.8676758
		l5.7353516-5.4199219l-3.4169922-2.3662109l-5.8535156,5.3081055l0.0009766,0.0004883h-0.0004883l-1.1152344,9.7636719
		L60.1875,30.6616211l-0.0024414,0.0024414l2.2231445,1.5576172l0.4394531,0.3085938v-0.0009766l0.8730469,0.6118164
		l9.2558594-8.7324219l-0.3720703,3.2553711l3.5390625,2.480957l0.8925781-8.1308594l4.2792969-4.0830078l-0.8896484,8.1845703l0,0
		l0,0v0.0004883l3.6396484,2.4960938l0,0l0.0009766,0.0004883l3.1142578-3.9453125l0.8759766,0.6152344l-0.0019531,0.0019531
		l2.6523438,1.8598633l0.0097656,0.0063477l0.8720703,0.6118164l7.4990234-7.0507812l0.3183594-2.7905273l3.4160156-3.8544922
		l-2.1914062,19.1762695l3.5390625,2.4799805l1.3085938-11.4438477l0.046875,0.0332031l0.0087891,0.0058594l0.8720703,0.6123047
		l7.4990234-7.0512695l-0.0048828-0.003418l0.0048828,0.0029297L115.0205078,8.1162109z M95.5488281,18.2338867
		l-4.5654297,4.6040039l0.8417969-5.4526367l4.5703125-4.6103516l-0.8427734,5.4614258L95.5488281,18.2338867z
		 M110.3662109,15.4013672l-4.3779297,4.4150391l0.0087891-0.0820312l0.5859375-5.1254883l4.6308594-4.6665039l-0.8427734,5.4619141
		L110.3662109,15.4013672z"/>
	<path fill="#EF4135" d="M54.8334961,18.8964844l-2.652832-1.8598633l-0.0087891-0.0058594l-0.8720703-0.6123047
		L48.019043,19.503418l0.1904297-1.6665039l-3.5400391-2.4804688l-0.3950195,3.4580078l-3.3808594,3.5341797l-0.8793945-0.6181641
		l0.0019531-0.0019531l-2.6533203-1.8598633l-0.0087891-0.0058594l-0.8720703-0.6123047l-7.4990234,7.0512695l-0.3051758,2.671875
		l-3.0522461,3.4487305l0.6162109-5.3974609l-4.5610352-3.140625l-3.2158203,3.0048828l1.5288086-13.0083008l-3.5385742-2.4799805
		L14.4077148,29.328125l-0.0200195-0.0141602L4.0966797,39.0263672l0.5522461-4.8671875l5.7358398-5.4204102l-3.4169922-2.3657227
		l-5.8530273,5.3076172l0.0029297,0.0024414l-0.0029297-0.0019531L0,41.4453125L0.8793945,42.0625l-0.0024414,0.0024414
		l3.534668,2.4770508l9.2558594-8.7329102l-0.371582,3.2558594l3.5390625,2.4799805l0.8916016-8.1308594l4.28125-4.0820312
		l-0.8901367,8.184082l-0.0004883,0.0004883l3.6411133,2.4970703l3.1137695-3.9453125l0.8759766,0.6152344l-0.0019531,0.0019531
		l2.652832,1.8603516l0.0092773,0.0058594l0.8720703,0.6118164l7.4985352-7.0507812l0.3188477-2.7910156l3.4160156-3.8540039
		l-2.1914062,19.1757812l3.5400391,2.4799805l1.3076172-11.4428711l0.046875,0.0327148l0.0087891,0.0063477l0.8720703,0.6118164
		l7.4985352-7.0507812h0.0004883l1.1152344-9.7641602l-0.8803711-0.6181641L54.8334961,18.8964844z M36.2402344,29.6347656
		l-4.5654297,4.6040039l0.8422852-5.4536133l4.5698242-4.609375l-0.8432617,5.4614258L36.2402344,29.6347656z
		 M46.6801758,31.2172852l0.5952148-5.2099609l4.6293945-4.6635742l-0.8427734,5.4619141l-0.0043945-0.0029297
		L46.6801758,31.2172852z"/>
</g>
</svg>
